<?xml version="1.0" encoding="UTF-8"?>
<svg id="Capa_2" data-name="Capa 2" xmlns="http://www.w3.org/2000/svg" viewBox="0 0 578.74 488.95">
  <defs>
    <style>
      .cls-1 {
        fill: #fff;
      }
    </style>
  </defs>
  <g id="Capa_1-2" data-name="Capa 1">
    <g>
      <path class="cls-1" d="M126.17,336.79l-21.74,81.11c-.47,1.75-2.05,2.96-3.86,2.96h-9.37c-3.73,0-4.32-1.04-4.32-2.68,0-.6.15-1.34.3-2.09l4.77-18.48c.75-2.83,1.19-5.36,1.19-7.75,0-4.62-1.64-10.73-8.35-15.2-6.71-4.47-16.99-6.26-27.72-6.26-16.88,0-37.79,6.52-46.02,21.14-1.45,2.58.43,5.78,3.39,5.88l13.39.46c1.49.05,2.92-.71,3.61-2.03,3.53-6.72,11.78-7.71,21.01-7.71,11.18,0,15.65,2.98,15.65,7.6,0,.6-.15,1.34-.3,2.09-2.53,10.43-58.27-6.56-67.21,26.38-.45,1.64-.6,3.13-.6,4.62,0,4.77,2.53,9.98,9.84,13.41,7.15,3.43,13.41,2.98,14.75,2.98,11.62,0,28.17-4.92,35.76-19.22l-1.49,5.51c-.3,1.04-.45,1.94-.45,2.98,0,1.34.3,4.17,2.68,6.71,2.23,2.53,5.81,4.17,10.13,4.17h47.9c1.81,0,3.39-1.21,3.86-2.96l26.75-99.79c.92-3.42-1.66-6.77-5.2-6.77h-14.51c-1.81,0-3.39,1.21-3.86,2.96ZM62.14,416.99c-1.19,4.17-5.66,7.45-11.47,9.54-5.81,2.09-10.73,2.68-13.86,2.68-3.87,0-10.73-1.04-10.73-5.96,0-.45.15-1.04.3-1.79,3.02-10.88,19.98-7.54,31.2-9.47,2.91-.5,5.36,2.16,4.56,5h0Z"/>
      <path class="cls-1" d="M178.75,339.05h-16.8c-1.22,0-2.28.81-2.6,1.99l-3.89,14.28c-.47,1.72.82,3.41,2.6,3.41h19.15c1.22,0,2.28-.81,2.6-1.99l3.28-12.01c.78-2.86-1.37-5.67-4.33-5.67Z"/>
      <path class="cls-1" d="M151.16,372.52l-17.44,65.07c-.78,2.91,1.41,5.76,4.42,5.76h14.37c2.24,0,4.21-1.51,4.79-3.67l17.33-64.66c.84-3.12-1.51-6.18-4.74-6.18h-13.94c-2.24,0-4.21,1.51-4.79,3.67Z"/>
      <g>
        <path class="cls-1" d="M408.48,482.39h21.33c1.19,0,2.23-.8,2.53-1.95l28.93-108.29c.44-1.66-.81-3.3-2.53-3.3h-19c-2.47,0-4.63,1.66-5.27,4.04l-28.52,106.2c-.45,1.67.81,3.3,2.53,3.3Z"/>
        <path class="cls-1" d="M469.8,371.15l-4.96,18.25c-.54,1.98.95,3.94,3.01,3.94h33.55c2.05,0,3.54,1.94,3.01,3.92l-21.6,81.21c-.53,1.98.97,3.92,3.01,3.92h20.15c1.41,0,2.65-.95,3.01-2.31l21.72-81.07c.03-.1.05-.2.07-.3.15-.92.3-1.85.3-2.93,0-1.3,0-3.73-1.78-6.16l.33-.32c1.78,2.43,4.87,4.05,8.11,4.05h33.78c1.41,0,2.64-.94,3.01-2.3l4-14.73c1.02-3.76-1.81-7.46-5.71-7.46h-100.02c-1.41,0-2.64.94-3.01,2.3Z"/>
      </g>
      <path class="cls-1" d="M392.75,418.13c0-.6.15-1.34.3-2.09l4.78-18.51c.74-2.84,1.2-5.37,1.2-7.76,0-4.63-1.64-10.75-8.36-15.22-6.72-4.48-16.11-6.18-26.85-5.82-6.07.2-12.8-.06-19.32.13h-30.52c-19.37,0-29.06,8.2-34.13,26.67l-5.98,22.59c-.43,1.62-1.89,2.75-3.57,2.75h-8.77c-3.73,0-4.32-1.04-4.32-2.68,0-.6.15-1.34.3-2.09l4.77-18.48c.75-2.83,1.19-5.36,1.19-7.75,0-4.62-1.64-10.73-8.35-15.2-6.71-4.47-16.99-6.26-27.72-6.26-17.04,0-38.19,6.64-46.26,21.57-1.3,2.41.41,5.35,3.14,5.44l14,.48c1.41.05,2.78-.66,3.43-1.92,3.5-6.82,11.78-7.83,21.07-7.83,11.18,0,15.65,2.98,15.65,7.6,0,.6-.15,1.34-.3,2.09-2.53,10.43-58.27-6.56-67.21,26.38-.45,1.64-.6,3.13-.6,4.62,0,4.77,2.53,9.98,9.84,13.41,7.15,3.43,13.41,2.98,14.75,2.98,11.62,0,28.16-4.92,35.76-19.22l-1.49,5.51c-.3,1.04-.45,1.94-.45,2.98,0,1.34.3,4.17,2.68,6.71,2.23,2.53,5.81,4.17,10.13,4.17h47.38c1.67,0,3.14-1.12,3.57-2.74l11.34-42.41c2.83-10.13,5.22-12.37,13.26-12.37h44.45c.11,0,.22,0,.33.01,8.55.65,12.06,3.71,12.06,7.8,0,.6-.15,1.34-.3,2.09-2.54,10.45-58.37-6.57-67.32,26.42-.45,1.64-.6,3.13-.6,4.63,0,4.78,2.54,10,9.85,13.44,7.17,3.43,13.44,2.99,14.78,2.99,11.64,0,28.21-4.93,35.82-19.26l-1.49,5.52c-.3,1.05-.45,1.94-.45,2.99,0,1.34.3,4.18,2.69,6.72,2.24,2.54,5.82,4.18,10.15,4.18h19.17c1.68,0,3.14-1.13,3.57-2.75l4.01-15.15c.62-2.34-1.15-4.64-3.57-4.64h-3.18c-3.73,0-4.33-1.05-4.33-2.69ZM232.46,416.99c-1.19,4.17-5.66,7.45-11.47,9.54-5.81,2.09-10.73,2.68-13.86,2.68-3.87,0-10.73-1.04-10.73-5.96,0-.45.15-1.04.3-1.79,3.06-11.04,20.46-7.44,31.67-9.56,2.68-.51,4.96,1.99,4.22,4.62l-.13.46ZM367.97,416.94c-1.2,4.18-5.67,7.46-11.49,9.55-5.82,2.09-10.75,2.69-13.88,2.69-3.88,0-10.75-1.05-10.75-5.97,0-.45.15-1.05.3-1.79,3.07-11.06,20.5-7.45,31.73-9.58,2.68-.51,4.96,1.99,4.22,4.62l-.13.47Z"/>
      <g>
        <path class="cls-1" d="M205.28,470.91c-.05.24-.05.44-.05.68,0,1.95,1.85,3.02,5.9,3.02s6.73-1.17,7.31-3.36c.05-.1.05-.2.05-.29,0-1.32-4.19-1.61-9.21-2.1-3.31-.34-6.19-1.32-7.36-2.78-.63-.73-.93-1.46-.93-2.29,0-.49.1-1.02.24-1.61,1.95-6.97,11.84-7.7,15.35-7.7,2.53,0,5.51.49,7.65,1.66,2.14,1.17,3.17,2.88,3.17,4.48,0,.39-.05.78-.15,1.22l-6.34.68v-.39c0-1.9-1.76-2.73-5.85-2.73s-6.34.68-6.97,3.07c-.05.1-.05.2-.05.24,0,1.41,4.29,1.61,9.26,2.1,3.31.34,6.19,1.32,7.41,2.68.58.73.88,1.46.88,2.29,0,.49-.1,1.02-.24,1.61-1.95,7.46-12.28,8.09-15.84,8.09-1.56,0-4.73-.29-7.41-1.37-2.92-1.17-4.05-3.27-4.05-5.07,0-.44.05-.88.15-1.32l7.07-.83Z"/>
        <path class="cls-1" d="M240.04,479.49c-3.95,0-7.51-.98-9.65-3.07-2.14-2.1-2.44-4.48-2.44-6,0-1.02.15-2.19.49-3.41,2.19-8.43,10.33-12.48,18.33-12.48,3.95,0,7.46,1.02,9.65,3.07,2.14,2.05,2.44,4.48,2.44,5.9,0,1.07-.2,2.24-.54,3.51-2.19,8.43-10.24,12.48-18.28,12.48ZM251.64,465.16c0-.78-.15-2.05-1.27-3.27-1.17-1.17-3.02-1.8-5.12-1.8-4.19,0-8.63,2.53-9.85,6.92-.19.68-.29,1.32-.29,1.95,0,.73.1,2.05,1.27,3.17,1.12,1.17,2.88,1.75,5.17,1.75,4.19,0,8.72-2.39,9.8-6.87.19-.68.29-1.32.29-1.85Z"/>
        <path class="cls-1" d="M281.47,454.54c4.05,0,6.68.83,7.99,2.44,1.27,1.61,1.9,3.41,1.9,5.36,0,1.36-.24,2.92-.68,4.68-2.29,8.43-7.85,12.43-15.89,12.48-3.12,0-6.43-1.41-8.04-3.56-.63-.93-.93-2.39-.97-3.51h-.1c.05.24.05.54.05.88,0,.58-.05,1.71-.29,2.73l-3.46,12.92h-6.97l9.11-34.12h7.02l-.88,3.12c-.24,1.12-.88,2.39-1.46,3.36l.1.05c.58-.98,1.36-2.19,2.19-2.92,2.88-2.39,7.07-3.9,10.38-3.9ZM283.76,467.01c.29-1.02.44-1.9.44-2.73,0-.15.15-1.12-.68-2.29-.83-1.17-2.53-1.85-5.41-1.85-4.63,0-9.31,2.73-10.24,6.87-.15.58-.24,1.17-.24,1.71,0,.78.1,2.1,1.27,3.41,1.17,1.36,3.07,2.09,5.46,2.09,5.6,0,8.38-2.97,9.41-7.21Z"/>
        <path class="cls-1" d="M304.67,479.49c-3.95,0-7.51-.98-9.65-3.07-2.14-2.1-2.44-4.48-2.44-6,0-1.02.15-2.19.49-3.41,2.19-8.43,10.33-12.48,18.33-12.48,3.95,0,7.46,1.02,9.65,3.07,2.14,2.05,2.44,4.48,2.44,5.9,0,1.07-.2,2.24-.54,3.51-2.19,8.43-10.24,12.48-18.28,12.48ZM316.27,465.16c0-.78-.15-2.05-1.27-3.27-1.17-1.17-3.02-1.8-5.12-1.8-4.19,0-8.63,2.53-9.85,6.92-.19.68-.29,1.32-.29,1.95,0,.73.1,2.05,1.27,3.17,1.12,1.17,2.88,1.75,5.17,1.75,4.19,0,8.72-2.39,9.8-6.87.19-.68.29-1.32.29-1.85Z"/>
        <path class="cls-1" d="M347.27,461.13h-10.34c-2.68,0-3.36.58-4.29,3.9l-3.45,14.17h-6.97l4.34-16.38c1.51-5.51,4.43-8.14,10.13-8.14h13.05l-2.47,6.45Z"/>
        <path class="cls-1" d="M365.91,454.68l-1.75,6.43h-7.26l-2.44,9.07c-.15.44-.2.83-.2,1.17,0,.83.58,1.46,2.14,1.46h5.8l-1.66,6.38h-6.87c-5.12,0-6.73-2-6.73-5.07,0-.34-.1-1.51.73-4.78l2.24-8.24h-4.92l1.75-6.43h1.41c2.73,0,6.19-4.53,7.36-8.34h6.97c-.2.54-.44,1.12-.68,1.71-.44,1.02-1.17,2.34-2.29,3.56-1.02,1.02-2.44,1.95-3.56,2.53-1.02.44-2.44.63-3.41.78l-.05.1c1.02-.15,2.39-.34,3.41-.34h9.99Z"/>
        <path class="cls-1" d="M392.67,468.38h-21.79c-.05.24-.05.49-.05.73,0,1.32.39,2.63,1.56,3.61,1.12,1.02,2.73,1.51,4.44,1.51h.34c3.7,0,6.48-.73,8.38-3.95l6.29.34c-3.51,7.12-9.6,8.87-16.23,8.87-4.05,0-7.46-.98-9.6-3.07s-2.39-4.44-2.39-5.95c0-1.02.15-2.19.49-3.46,2.19-8.43,10.24-12.48,18.18-12.48,3.95,0,7.26,1.02,9.26,3.07,1.95,2.05,2.1,4.39,2.1,5.7,0,1.12-.2,2.34-.54,3.71q-.2.73-.44,1.36ZM380.93,459.51c-3.41,0-8.58,2.34-10.04,8.87,1.56-2.58,2.92-3.27,5.12-3.27h11.36c.05-.34.05-.63.05-.98,0-1.17-.34-2.39-1.46-3.31s-2.83-1.32-4.78-1.32h-.24Z"/>
      </g>
    </g>
    <path class="cls-1" d="M450.99,106.38c-23.44-2.47-25.8-3.58-44.24-18.76h0c-19.42-15.82-39.96-28.14-52.85-58.18-.48-1.12,0,0-1.09-3.47-14.46-45.87-69.61-24.06-57.89,11.98,1.02,3.14,2.83,5.99,5.01,8.46,8.84,9.99,20.14,7.49,32.6,12.17,14.9,5.6,43.71,30.05,59.81,45.71,6.8,7.81,15.08,14.67,18,25.01,8.39,29.68-44,84.11-46.58,87.12-27.79,32.48-41,50.83-83.84,23.05-16.55-10.73-55.78-39.41-63.87-56.36-5.88-12.31-6.22-26.25-22.95-32.74-51.94-14.94-55.91,65.48-4.34,58.76,24.66-3.21,71.98,41.73,83.5,59.51,11.04,17.03,9.01,43.62,35.92,46.34,33.27,3.37,32.75-27.58,44.26-47.85,10.45-18.41,29.21-38.63,43.03-55.05,10.69-12.71,27.21-36.95,42.31-43.12,9.67-3.96,17.44-2.68,25.96-10.74,17.14-16.19,10.01-45.81-12.76-51.85Z"/>
  </g>
</svg>